# xmcd CD database file
#
# Track frame offsets:
#	150
#	13651
#	29040
#	37955
#	54338
#	71515
#	83643
#	103734
#	119573
#	134077
#	152987
#	170873
#	184876
#	192194
#	213219
#	226270
#	237048
#	249885
#	263912
#	275539
#
# Disc length: 3794 seconds
#
# Revision: 0
# Processed by: cddbd v1.5PL3 Copyright (c) Steve Scherf et al.
# Submitted via: CDex 1.51
#
DISCID=1d0ed014
DTITLE=Randy Greer - The Romance of Jazz
DYEAR=1900
DGENRE=Jazz
TTITLE0=Lilette
TTITLE1=Black Orpheus
TTITLE2=How Am I Doing (Hey Hey)
TTITLE3=Let There be Love
TTITLE4=Mona Lisa
TTITLE5=When I Take My Suggar To Tea
TTITLE6=Natue Baby
TTITLE7=Best Man
TTITLE8=Route 66
TTITLE9=All Of Me
TTITLE10=Dindi
TTITLE11=Night Lights
TTITLE12=Natural Fact
TTITLE13=Shadow of your Smile
TTITLE14=Straighten Up  Fly Right
TTITLE15=Shoo Shoo Baby
TTITLE16=Caravan
TTITLE17=Lonely One
TTITLE18=Just You Just Me
TTITLE19=I Have A Dream
EXTD=
EXTT0=
EXTT1=
EXTT2=
EXTT3=
EXTT4=
EXTT5=
EXTT6=
EXTT7=
EXTT8=
EXTT9=
EXTT10=
EXTT11=
EXTT12=
EXTT13=
EXTT14=
EXTT15=
EXTT16=
EXTT17=
EXTT18=
EXTT19=
PLAYORDER=
